#!OML:ASF F:\VICON\USERDATA\INSTALL\rory3\rory3.ASF
:FULLY-SPECIFIED
:DEGREES
1199
root 5.58413 17.4508 1.30909 19.5213 2.65947 0.857153
lowerback -10.3414 -1.35649 10.0154
upperback -14.1783 -2.18805 0.602892
thorax -10.0261 -2.08805 -4.93564
lowerneck -3.30082 19.8552 10.8593
upperneck 9.45042 26.0527 -0.335933
head 4.76349 13.1923 -0.00790746
rclavicle 2.20651e-014 4.77083e-015
rhumerus -8.94123 -29.7346 30.2856
rradius 112.408
rwrist -63.1196
rhand -3.1969 -42.251
rfingers 7.12502
rthumb 22.525 -70.9572
lclavicle 2.20651e-014 4.77083e-015
lhumerus 22.9528 26.408 -13.4747
lradius 32.7068
lwrist 56.1888
lhand -18.1556 -14.2554
lfingers 7.12502
lthumb 8.12017 15.5686
rfemur -11.4429 10.6486 -8.94743
rtibia 10.266
rfoot -13.6242 -23.4093
rtoes 38.5982
lfemur -18.924 2.77667 -30.6935
ltibia 16.4108
lfoot -15.924 1.77727
ltoes 8.98326
1200
root 5.58564 17.4521 1.30681 19.5391 2.73096 0.897283
lowerback -10.369 -1.38795 10.0032
upperback -14.1883 -2.23292 0.590314
thorax -10.0299 -2.11066 -4.94332
lowerneck -3.52079 19.856 10.7541
upperneck 9.70131 26.011 -0.0749559
head 4.82671 13.1818 0.10284
rclavicle -7.93151e-014 -3.57812e-014
rhumerus -8.94996 -29.6019 30.2669
rradius 112.484
rwrist -63.0915
rhand -3.66897 -42.1352
rfingers 7.12502
rthumb 22.0718 -70.8956
lclavicle -7.93151e-014 -3.57812e-014
lhumerus 22.7934 26.1686 -13.7051
lradius 32.8273
lwrist 56.456
lhand -17.7322 -13.9769
lfingers 7.12502
lthumb 8.52873 15.8308
rfemur -11.4282 10.5403 -8.9572
rtibia 10.3281
rfoot -13.6891 -23.2858
rtoes 38.7261
lfemur -18.9195 2.76683 -30.7294
ltibia 16.3831
lfoot -16.0095 1.65791
ltoes 9.02606
1201
root 5.58702 17.4517 1.30544 19.4931 2.76217 0.984452
lowerback -10.3572 -1.41282 9.93929
upperback -14.1517 -2.26606 0.561093
thorax -9.99401 -2.11976 -4.94097
lowerneck -3.54162 19.842 10.7297
upperneck 9.66814 25.9873 -0.0527072
head 4.8123 13.1698 0.108071
rclavicle -1.8487e-014 -2.22639e-014
rhumerus -8.99361 -29.5542 30.2778
rradius 112.523
rwrist -63.0215
rhand -3.94248 -42.1733
rfingers 7.12502
rthumb 21.8092 -70.9644
lclavicle -1.8487e-014 -2.22639e-014
lhumerus 22.6357 25.9309 -13.9634
lradius 32.9105
lwrist 56.7549
lhand -17.6795 -13.991
lfingers 7.12502
lthumb 8.57967 15.8146
rfemur -11.3352 10.4901 -9.02816
rtibia 10.3003
rfoot -13.8531 -23.15
rtoes 39.1054
lfemur -18.8815 2.76804 -30.8226
ltibia 16.411
lfoot -16.0492 1.63122
ltoes 8.92138
1202
root 5.58478 17.4515 1.30565 19.4717 2.72705 0.970781
lowerback -10.4505 -1.39568 9.8965
upperback -14.0808 -2.25538 0.570079
thorax -9.84911 -2.10068 -4.91382
lowerneck -3.51651 19.8306 10.7363
upperneck 9.5656 25.9799 -0.128166
head 4.78653 13.1616 0.0781238
rclavicle -3.97569e-016 -1.90833e-014
rhumerus -9.03279 -29.6346 30.2831
rradius 112.474
rwrist -63.0044
rhand -3.94298 -42.2408
rfingers 7.12502
rthumb 21.8087 -71.032
lclavicle -3.97569e-016 -1.90833e-014
lhumerus 22.7682 26.2229 -13.7644
lradius 32.8078
lwrist 56.4389
lhand -17.994 -14.2994
lfingers 7.12502
lthumb 8.27608 15.5185
rfemur -11.3051 10.555 -9.01791
rtibia 10.2303
rfoot -14.8113 -22.5901
rtoes 40.6009
lfemur -18.8717 2.78814 -30.8065
ltibia 16.4293
lfoot -16.0484 1.64329
ltoes 9.03596
1203
root 5.58166 17.4518 1.30982 19.4058 2.57768 0.785623
lowerback -10.485 -1.32408 9.99538
upperback -14.0156 -2.16835 0.624866
thorax -9.74219 -2.05633 -4.91205
lowerneck -3.59346 19.8195 10.7138
upperneck 9.6169 25.9571 -0.116286
head 4.80921 13.1498 0.0924181
rclavicle -4.96962e-015 7.95139e-016
rhumerus -9.0039 -29.7696 30.2411
rradius 112.395
rwrist -63.0211
rhand -3.87585 -42.1688
rfingers 7.12502
rthumb 21.8732 -70.9525
lclavicle -4.96962e-015 7.95139e-016
lhumerus 23.0066 26.6875 -13.3644
lradius 32.6478
lwrist 55.8424
lhand -18.131 -14.4071
lfingers 7.12502
lthumb 8.14392 15.416
rfemur -11.3409 10.7698 -8.85699
rtibia 10.1814
rfoot -15.0209 -22.5211
rtoes 40.7368
lfemur -18.8124 2.89932 -30.629
ltibia 16.4231
lfoot -16.0699 1.76043
ltoes 8.80455
1204
root 5.58065 17.4511 1.31866 19.2394 2.29751 0.714668
lowerback -10.4019 -1.24547 9.99776
upperback -13.9224 -2.05996 0.628305
thorax -9.65924 -1.99528 -4.90955
lowerneck -3.63509 19.827 10.7136
upperneck 9.55514 25.9667 -0.171281
head 4.80376 13.1501 0.0797048
rclavicle -4.69132e-014 -2.38542e-014
rhumerus -9.02759 -29.8507 30.2404
rradius 112.367
rwrist -62.9569
rhand -3.88931 -42
rfingers 7.12502
rthumb 21.8602 -70.7852
lclavicle -4.69132e-014 -2.38542e-014
lhumerus 23.0105 26.7219 -13.3682
lradius 32.6384
lwrist 55.9478
lhand -17.9679 -14.3059
lfingers 7.12502
lthumb 8.30136 15.511
rfemur -11.3879 11.0345 -8.85799
rtibia 10.2613
rfoot -13.7777 -23.2555
rtoes 38.7539
lfemur -18.6228 3.11306 -30.6132
ltibia 16.4161
lfoot -16.1182 1.89826
ltoes 8.64161
1205
root 5.5818 17.4502 1.32255 19.1559 2.12844 0.731696
lowerback -10.3484 -1.20935 9.95526
upperback -13.8621 -2.00906 0.610123
thorax -9.60595 -1.96251 -4.90594
lowerneck -3.67021 19.8364 10.6765
upperneck 9.47689 25.9789 -0.200201
head 4.78412 13.1521 0.0750454
rclavicle 3.89618e-014 3.02153e-014
rhumerus -9.08153 -29.8455 30.2352
rradius 112.371
rwrist -62.7671
rhand -3.8872 -41.9068
rfingers 7.12502
rthumb 21.8623 -70.6917
lclavicle 3.89618e-014 3.02153e-014
lhumerus 22.8906 26.5719 -13.5576
lradius 32.6985
lwrist 56.2444
lhand -17.7498 -14.292
lfingers 7.12502
lthumb 8.5118 15.5164
rfemur -11.455 11.0752 -8.93143
rtibia 10.3729
rfoot -12.8092 -23.6514
rtoes 37.3539
lfemur -18.5136 3.15905 -30.6659
ltibia 16.3941
lfoot -16.1079 2.02701
ltoes 8.90835
1206
root 5.57694 17.4504 1.30362 19.4792 2.47285 0.856072
lowerback -10.506 -1.33285 9.81066
upperback -13.9873 -2.17692 0.630486
thorax -9.67988 -2.03851 -4.8058
lowerneck -3.56388 19.808 10.67
upperneck 9.39132 25.9576 -0.253479
head 4.74615 13.1396 0.0429824
rclavicle 5.06901e-014 -1.59028e-014
rhumerus -9.03315 -29.8887 30.1547
rradius 112.313
rwrist -62.587
rhand -3.7045 -41.8517
rfingers 7.12502
rthumb 22.0377 -70.6161
lclavicle 5.06901e-014 -1.59028e-014
lhumerus 22.8345 26.5741 -13.5783
lradius 32.7161
lwrist 56.126
lhand -17.9049 -14.4825
lfingers 7.12502
lthumb 8.3621 15.3319
rfemur -11.6582 10.6905 -8.99103
rtibia 10.454
rfoot -13.2303 -23.474
rtoes 37.8877
lfemur -18.9219 2.85139 -30.7079
ltibia 16.3758
lfoot -15.9196 1.89284
ltoes 9.22274
1207
root 5.57462 17.4499 1.29758 19.5654 2.58213 0.833151
lowerback -10.6305 -1.35903 9.81308
upperback -13.9841 -2.22391 0.662642
thorax -9.61161 -2.05706 -4.77714
lowerneck -3.19913 19.7669 10.7555
upperneck 8.97097 25.9617 -0.548813
head 4.60766 13.1302 -0.10509
rclavicle 4.57205e-015 -3.10104e-014
rhumerus -9.05162 -29.9436 30.2042
rradius 112.32
rwrist -62.7155
rhand -3.63186 -41.7923
rfingers 7.12502
rthumb 22.1074 -70.5485
lclavicle 4.57205e-015 -3.10104e-014
lhumerus 22.8322 26.7221 -13.5126
lradius 32.6977
lwrist 55.9918
lhand -18.1641 -14.7198
lfingers 7.12502
lthumb 8.11195 15.1045
rfemur -11.7219 10.6346 -8.94002
rtibia 10.485
rfoot -13.7183 -23.2373
rtoes 38.6317
lfemur -19.072 2.7296 -30.6388
ltibia 16.4164
lfoot -15.8386 1.90575
ltoes 9.32378
1208
root 5.5769 17.4531 1.29595 19.5514 2.62089 0.741548
lowerback -10.6137 -1.35211 9.9289
upperback -13.9889 -2.21573 0.687683
thorax -9.63501 -2.06371 -4.81286
lowerneck -2.94241 19.7546 10.782
upperneck 8.68576 25.9806 -0.680259
head 4.50011 13.1347 -0.184859
rclavicle 3.39922e-014 7.95139e-016
rhumerus -9.14021 -29.8385 30.3762
rradius 112.424
rwrist -63.0376
rhand -3.97293 -41.8788
rfingers 7.12502
rthumb 21.78 -70.6734
lclavicle 3.39922e-014 7.95139e-016
lhumerus 22.8603 26.756 -13.4577
lradius 32.6842
lwrist 55.9748
lhand -18.2825 -14.8402
lfingers 7.12502
lthumb 7.99767 14.9885
rfemur -11.7094 10.663 -8.83428
rtibia 10.4755
rfoot -13.6367 -23.3179
rtoes 38.4536
lfemur -19.0891 2.76058 -30.5481
ltibia 16.4869
lfoot -15.8373 1.89185
ltoes 9.30442
1209
root 5.57928 17.456 1.29377 19.5549 2.67892 0.710595
lowerback -10.5558 -1.36082 9.98247
upperback -14.0116 -2.2212 0.690573
thorax -9.70115 -2.07501 -4.83621
lowerneck -3.1483 19.7746 10.7036
upperneck 8.91431 25.9722 -0.476987
head 4.5664 13.1376 -0.0909812
rclavicle -4.21423e-014 -7.95139e-016
rhumerus -9.17375 -29.7717 30.4289
rradius 112.428
rwrist -63.1079
rhand -4.3637 -41.9429
rfingers 7.12502
rthumb 21.4047 -70.7805
lclavicle -4.21423e-014 -7.95139e-016
lhumerus 22.9679 26.8283 -13.3433
lradius 32.6058
lwrist 55.725
lhand -18.253 -14.8753
lfingers 7.12502
lthumb 8.02611 14.9523
rfemur -11.6392 10.587 -8.78026
rtibia 10.3713
rfoot -13.5411 -23.4194
rtoes 38.3074
lfemur -19.1045 2.72649 -30.5097
ltibia 16.5575
lfoot -15.8854 1.87636
ltoes 9.18874
1210
root 5.57938 17.4571 1.29238 19.5084 2.73644 0.683676
lowerback -10.476 -1.37028 10.0174
upperback -13.9861 -2.22747 0.684421
thorax -9.72099 -2.08155 -4.86016
lowerneck -3.54407 19.7867 10.6456
upperneck 9.28869 25.9318 -0.270939
head 4.70875 13.1245 0.0290062
rclavicle 5.10877e-014 1.82882e-014
rhumerus -9.22897 -29.7811 30.4309
rradius 112.367
rwrist -62.874
rhand -4.33881 -41.7902
rfingers 7.12502
rthumb 21.4286 -70.6251
lclavicle 5.10877e-014 1.82882e-014
lhumerus 23.0446 26.9112 -13.3044
lradius 32.5542
lwrist 55.6018
lhand -18.2434 -14.881
lfingers 7.12502
lthumb 8.03545 14.9462
rfemur -11.5292 10.567 -8.71179
rtibia 10.298
rfoot -13.7232 -23.3417
rtoes 38.5992
lfemur -19.0826 2.74944 -30.4688
ltibia 16.6193
lfoot -16.008 1.83399
ltoes 8.8549
1211
root 5.57814 17.4558 1.29164 19.4543 2.76333 0.695966
lowerback -10.4623 -1.37667 10.0177
upperback -13.938 -2.23814 0.664624
thorax -9.67462 -2.08431 -4.88334
lowerneck -3.61618 19.7845 10.6696
upperneck 9.33057 25.9171 -0.253964
head 4.73306 13.1179 0.0403545
rclavicle 2.52457e-014 -7.15625e-015
rhumerus -9.33714 -29.7947 30.5022
rradius 112.365
rwrist -62.7717
rhand -4.02971 -41.6671
rfingers 7.12502
rthumb 21.7254 -70.468
lclavicle 2.52457e-014 -7.15625e-015
lhumerus 23.0568 26.9677 -13.3187
lradius 32.5816
lwrist 55.7132
lhand -17.9952 -14.694
lfingers 7.12502
lthumb 8.27501 15.124
rfemur -11.4639 10.4927 -8.69075
rtibia 10.3115
rfoot -13.243 -23.5167
rtoes 37.9691
lfemur -19.0358 2.86049 -30.4927
ltibia 16.6332
lfoot -16.0546 1.75397
ltoes 8.66788
